<?xml version="1.0" encoding="utf-8" standalone="no"?>
<!DOCTYPE svg PUBLIC "-//W3C//DTD SVG 1.1//EN"
  "http://www.w3.org/Graphics/SVG/1.1/DTD/svg11.dtd">
<svg xmlns:xlink="http://www.w3.org/1999/xlink" width="448.115547pt" height="292.811438pt" viewBox="0 0 448.115547 292.811438" xmlns="http://www.w3.org/2000/svg" version="1.1">
 <metadata>
  <rdf:RDF xmlns:dc="http://purl.org/dc/elements/1.1/" xmlns:cc="http://creativecommons.org/ns#" xmlns:rdf="http://www.w3.org/1999/02/22-rdf-syntax-ns#">
   <cc:Work>
    <dc:type rdf:resource="http://purl.org/dc/dcmitype/StillImage"/>
    <dc:date>2026-09-12T16:43:44.986892</dc:date>
    <dc:format>image/svg+xml</dc:format>
    <dc:creator>
     <cc:Agent>
      <dc:title>Matplotlib v3.10.0, https://matplotlib.org/</dc:title>
     </cc:Agent>
    </dc:creator>
   </cc:Work>
  </rdf:RDF>
 </metadata>
 <defs>
  <style type="text/css">*{stroke-linejoin: round; stroke-linecap: butt}</style>
 </defs>
 <g id="figure_1">
  <g id="patch_1">
   <path d="M 0 292.811438 
L 448.115547 292.811438 
L 448.115547 0 
L 0 0 
z
" style="fill: #ffffff"/>
  </g>
  <g id="axes_1">
   <g id="patch_2">
    <path d="M 45.511094 107.685872 
L 441.691094 107.685872 
L 441.691094 1.44 
L 45.511094 1.44 
z
" style="fill: #ffffff"/>
   </g>
   <g id="matplotlib.axis_1">
    <g id="xtick_1">
     <g id="line2d_1">
      <defs>
       <path id="ma33556841e" d="M 0 0 
L 0 3 
" style="stroke: #b4bbc2; stroke-width: 0.7"/>
      </defs>
      <g>
       <use xlink:href="#ma33556841e" x="45.511094" y="107.685872" style="fill: #b4bbc2; stroke: #b4bbc2; stroke-width: 0.7"/>
      </g>
     </g>
    </g>
    <g id="xtick_2">
     <g id="line2d_2">
      <g>
       <use xlink:href="#ma33556841e" x="111.541094" y="107.685872" style="fill: #b4bbc2; stroke: #b4bbc2; stroke-width: 0.7"/>
      </g>
     </g>
    </g>
    <g id="xtick_3">
     <g id="line2d_3">
      <g>
       <use xlink:href="#ma33556841e" x="177.571094" y="107.685872" style="fill: #b4bbc2; stroke: #b4bbc2; stroke-width: 0.7"/>
      </g>
     </g>
    </g>
    <g id="xtick_4">
     <g id="line2d_4">
      <g>
       <use xlink:href="#ma33556841e" x="243.601094" y="107.685872" style="fill: #b4bbc2; stroke: #b4bbc2; stroke-width: 0.7"/>
      </g>
     </g>
    </g>
    <g id="xtick_5">
     <g id="line2d_5">
      <g>
       <use xlink:href="#ma33556841e" x="309.631094" y="107.685872" style="fill: #b4bbc2; stroke: #b4bbc2; stroke-width: 0.7"/>
      </g>
     </g>
    </g>
    <g id="xtick_6">
     <g id="line2d_6">
      <g>
       <use xlink:href="#ma33556841e" x="375.661094" y="107.685872" style="fill: #b4bbc2; stroke: #b4bbc2; stroke-width: 0.7"/>
      </g>
     </g>
    </g>
    <g id="xtick_7">
     <g id="line2d_7">
      <g>
       <use xlink:href="#ma33556841e" x="441.691094" y="107.685872" style="fill: #b4bbc2; stroke: #b4bbc2; stroke-width: 0.7"/>
      </g>
     </g>
    </g>
   </g>
   <g id="matplotlib.axis_2">
    <g id="ytick_1">
     <g id="line2d_8">
      <path d="M 45.511094 98.832049 
L 441.691094 98.832049 
" clip-path="url(#p3ccea4bfd3)" style="fill: none; stroke: #dfe3e7; stroke-opacity: 0.2; stroke-width: 0.5; stroke-linecap: square"/>
     </g>
     <g id="line2d_9">
      <defs>
       <path id="m4af3cb5f53" d="M 0 0 
L -3 0 
" style="stroke: #b4bbc2; stroke-width: 0.7"/>
      </defs>
      <g>
       <use xlink:href="#m4af3cb5f53" x="45.511094" y="98.832049" style="fill: #b4bbc2; stroke: #b4bbc2; stroke-width: 0.7"/>
      </g>
     </g>
     <g id="text_1">
      <text style="font-size: 8.5px; font-family: 'Microsoft YaHei'; text-anchor: end; fill: #333333" x="39.011094" y="102.229393" transform="rotate(-0 39.011094 102.229393)">0.4</text>
     </g>
    </g>
    <g id="ytick_2">
     <g id="line2d_10">
      <path d="M 45.511094 81.124404 
L 441.691094 81.124404 
" clip-path="url(#p3ccea4bfd3)" style="fill: none; stroke: #dfe3e7; stroke-opacity: 0.2; stroke-width: 0.5; stroke-linecap: square"/>
     </g>
     <g id="line2d_11">
      <g>
       <use xlink:href="#m4af3cb5f53" x="45.511094" y="81.124404" style="fill: #b4bbc2; stroke: #b4bbc2; stroke-width: 0.7"/>
      </g>
     </g>
     <g id="text_2">
      <text style="font-size: 8.5px; font-family: 'Microsoft YaHei'; text-anchor: end; fill: #333333" x="39.011094" y="84.521747" transform="rotate(-0 39.011094 84.521747)">0.6</text>
     </g>
    </g>
    <g id="ytick_3">
     <g id="line2d_12">
      <path d="M 45.511094 63.416758 
L 441.691094 63.416758 
" clip-path="url(#p3ccea4bfd3)" style="fill: none; stroke: #dfe3e7; stroke-opacity: 0.2; stroke-width: 0.5; stroke-linecap: square"/>
     </g>
     <g id="line2d_13">
      <g>
       <use xlink:href="#m4af3cb5f53" x="45.511094" y="63.416758" style="fill: #b4bbc2; stroke: #b4bbc2; stroke-width: 0.7"/>
      </g>
     </g>
     <g id="text_3">
      <text style="font-size: 8.5px; font-family: 'Microsoft YaHei'; text-anchor: end; fill: #333333" x="39.011094" y="66.814102" transform="rotate(-0 39.011094 66.814102)">0.8</text>
     </g>
    </g>
    <g id="ytick_4">
     <g id="line2d_14">
      <path d="M 45.511094 45.709113 
L 441.691094 45.709113 
" clip-path="url(#p3ccea4bfd3)" style="fill: none; stroke: #dfe3e7; stroke-opacity: 0.2; stroke-width: 0.5; stroke-linecap: square"/>
     </g>
     <g id="line2d_15">
      <g>
       <use xlink:href="#m4af3cb5f53" x="45.511094" y="45.709113" style="fill: #b4bbc2; stroke: #b4bbc2; stroke-width: 0.7"/>
      </g>
     </g>
     <g id="text_4">
      <text style="font-size: 8.5px; font-family: 'Microsoft YaHei'; text-anchor: end; fill: #333333" x="39.011094" y="49.106457" transform="rotate(-0 39.011094 49.106457)">1.0</text>
     </g>
    </g>
    <g id="ytick_5">
     <g id="line2d_16">
      <path d="M 45.511094 28.001468 
L 441.691094 28.001468 
" clip-path="url(#p3ccea4bfd3)" style="fill: none; stroke: #dfe3e7; stroke-opacity: 0.2; stroke-width: 0.5; stroke-linecap: square"/>
     </g>
     <g id="line2d_17">
      <g>
       <use xlink:href="#m4af3cb5f53" x="45.511094" y="28.001468" style="fill: #b4bbc2; stroke: #b4bbc2; stroke-width: 0.7"/>
      </g>
     </g>
     <g id="text_5">
      <text style="font-size: 8.5px; font-family: 'Microsoft YaHei'; text-anchor: end; fill: #333333" x="39.011094" y="31.398812" transform="rotate(-0 39.011094 31.398812)">1.2</text>
     </g>
    </g>
    <g id="ytick_6">
     <g id="line2d_18">
      <path d="M 45.511094 10.293823 
L 441.691094 10.293823 
" clip-path="url(#p3ccea4bfd3)" style="fill: none; stroke: #dfe3e7; stroke-opacity: 0.2; stroke-width: 0.5; stroke-linecap: square"/>
     </g>
     <g id="line2d_19">
      <g>
       <use xlink:href="#m4af3cb5f53" x="45.511094" y="10.293823" style="fill: #b4bbc2; stroke: #b4bbc2; stroke-width: 0.7"/>
      </g>
     </g>
     <g id="text_6">
      <text style="font-size: 8.5px; font-family: 'Microsoft YaHei'; text-anchor: end; fill: #333333" x="39.011094" y="13.691166" transform="rotate(-0 39.011094 13.691166)">1.4</text>
     </g>
    </g>
    <g id="text_7">
     <text style="font-size: 9.5px; font-family: 'Microsoft YaHei'; text-anchor: middle; fill: #333333" x="20.633906" y="54.562936" transform="rotate(-90 20.633906 54.562936)">电价 / (元/kWh)</text>
    </g>
   </g>
   <g id="patch_3">
    <path d="M 45.511094 107.685872 
L 45.511094 1.44 
" style="fill: none; stroke: #b4bbc2; stroke-width: 0.7; stroke-linejoin: miter; stroke-linecap: square"/>
   </g>
   <g id="patch_4">
    <path d="M 45.511094 107.685872 
L 441.691094 107.685872 
" style="fill: none; stroke: #b4bbc2; stroke-width: 0.7; stroke-linejoin: miter; stroke-linecap: square"/>
   </g>
   <g id="patch_5">
    <path d="M 338.498684 22.098164 
Q 356.097753 18.679894 373.696821 15.261624 
" style="fill: none; stroke: #a9705a; stroke-width: 0.6; stroke-linecap: round"/>
   </g>
   <g id="text_8">
    <text style="font-size: 7.5px; font-family: 'Microsoft YaHei'; text-anchor: start; fill: #a9705a" x="319.535594" y="26.390072" transform="rotate(-0 319.535594 26.390072)">峰价</text>
   </g>
   <g id="line2d_20">
    <path d="M 45.511094 96.388394 
L 53.764844 96.388394 
L 53.764844 96.308709 
L 70.272344 96.308709 
L 70.272344 96.07851 
L 86.779844 96.07851 
L 86.779844 95.671234 
L 103.287344 95.671234 
L 103.287344 95.485304 
L 119.794844 95.485304 
L 119.794844 95.334789 
L 136.302344 95.334789 
L 136.302344 53.686407 
L 152.809844 53.686407 
L 152.809844 60.459582 
L 169.317344 60.459582 
L 169.317344 31.392482 
L 185.824844 31.392482 
L 185.824844 42.521737 
L 202.332344 42.521737 
L 202.332344 45.912751 
L 218.839844 45.912751 
L 218.839844 89.756881 
L 235.347344 89.756881 
L 235.347344 95.007198 
L 251.854844 95.007198 
L 251.854844 60.946542 
L 268.362344 60.946542 
L 268.362344 47.887154 
L 284.869844 47.887154 
L 284.869844 74.979851 
L 301.377344 74.979851 
L 301.377344 62.929798 
L 317.884844 62.929798 
L 317.884844 52.225527 
L 334.392344 52.225527 
L 334.392344 25.230221 
L 350.899844 25.230221 
L 350.899844 15.021764 
L 367.407344 15.021764 
L 367.407344 14.880103 
L 383.914844 14.880103 
L 383.914844 51.623467 
L 400.422344 51.623467 
L 400.422344 96.9816 
L 416.929844 96.9816 
L 416.929844 96.733693 
L 425.183594 96.733693 
" clip-path="url(#p3ccea4bfd3)" style="fill: none; stroke: #4c6e91; stroke-width: 1.4; stroke-linecap: square"/>
   </g>
   <g id="line2d_21">
    <path d="M 375.661094 14.880103 
" clip-path="url(#p3ccea4bfd3)" style="fill: none; stroke: #a9705a; stroke-width: 1.5; stroke-linecap: square"/>
    <defs>
     <path id="mcb2a28b246" d="M 0 1.8 
C 0.477366 1.8 0.935244 1.610341 1.272792 1.272792 
C 1.610341 0.935244 1.8 0.477366 1.8 0 
C 1.8 -0.477366 1.610341 -0.935244 1.272792 -1.272792 
C 0.935244 -1.610341 0.477366 -1.8 0 -1.8 
C -0.477366 -1.8 -0.935244 -1.610341 -1.272792 -1.272792 
C -1.610341 -0.935244 -1.8 -0.477366 -1.8 0 
C -1.8 0.477366 -1.610341 0.935244 -1.272792 1.272792 
C -0.935244 1.610341 -0.477366 1.8 0 1.8 
z
" style="stroke: #a9705a"/>
    </defs>
    <g clip-path="url(#p3ccea4bfd3)">
     <use xlink:href="#mcb2a28b246" x="375.661094" y="14.880103" style="fill: #a9705a; stroke: #a9705a"/>
    </g>
   </g>
   <g id="text_9">
    <text style="font-size: 9px; font-family: 'Microsoft YaHei'; text-anchor: start; fill: #333333" x="50.265254" y="12.352981" transform="rotate(-0 50.265254 12.352981)">(a) 电价</text>
   </g>
  </g>
  <g id="axes_2">
   <g id="patch_6">
    <path d="M 45.511094 262.008 
L 441.691094 262.008 
L 441.691094 129.200661 
L 45.511094 129.200661 
z
" style="fill: #ffffff"/>
   </g>
   <g id="matplotlib.axis_3">
    <g id="xtick_8">
     <g id="line2d_22">
      <g>
       <use xlink:href="#ma33556841e" x="45.511094" y="262.008" style="fill: #b4bbc2; stroke: #b4bbc2; stroke-width: 0.7"/>
      </g>
     </g>
     <g id="text_10">
      <text style="font-size: 8.5px; font-family: 'Microsoft YaHei'; text-anchor: middle; fill: #333333" x="45.511094" y="275.302687" transform="rotate(-0 45.511094 275.302687)">0</text>
     </g>
    </g>
    <g id="xtick_9">
     <g id="line2d_23">
      <g>
       <use xlink:href="#ma33556841e" x="111.541094" y="262.008" style="fill: #b4bbc2; stroke: #b4bbc2; stroke-width: 0.7"/>
      </g>
     </g>
     <g id="text_11">
      <text style="font-size: 8.5px; font-family: 'Microsoft YaHei'; text-anchor: middle; fill: #333333" x="111.541094" y="275.302687" transform="rotate(-0 111.541094 275.302687)">4</text>
     </g>
    </g>
    <g id="xtick_10">
     <g id="line2d_24">
      <g>
       <use xlink:href="#ma33556841e" x="177.571094" y="262.008" style="fill: #b4bbc2; stroke: #b4bbc2; stroke-width: 0.7"/>
      </g>
     </g>
     <g id="text_12">
      <text style="font-size: 8.5px; font-family: 'Microsoft YaHei'; text-anchor: middle; fill: #333333" x="177.571094" y="275.302687" transform="rotate(-0 177.571094 275.302687)">8</text>
     </g>
    </g>
    <g id="xtick_11">
     <g id="line2d_25">
      <g>
       <use xlink:href="#ma33556841e" x="243.601094" y="262.008" style="fill: #b4bbc2; stroke: #b4bbc2; stroke-width: 0.7"/>
      </g>
     </g>
     <g id="text_13">
      <text style="font-size: 8.5px; font-family: 'Microsoft YaHei'; text-anchor: middle; fill: #333333" x="243.601094" y="275.302687" transform="rotate(-0 243.601094 275.302687)">12</text>
     </g>
    </g>
    <g id="xtick_12">
     <g id="line2d_26">
      <g>
       <use xlink:href="#ma33556841e" x="309.631094" y="262.008" style="fill: #b4bbc2; stroke: #b4bbc2; stroke-width: 0.7"/>
      </g>
     </g>
     <g id="text_14">
      <text style="font-size: 8.5px; font-family: 'Microsoft YaHei'; text-anchor: middle; fill: #333333" x="309.631094" y="275.302687" transform="rotate(-0 309.631094 275.302687)">16</text>
     </g>
    </g>
    <g id="xtick_13">
     <g id="line2d_27">
      <g>
       <use xlink:href="#ma33556841e" x="375.661094" y="262.008" style="fill: #b4bbc2; stroke: #b4bbc2; stroke-width: 0.7"/>
      </g>
     </g>
     <g id="text_15">
      <text style="font-size: 8.5px; font-family: 'Microsoft YaHei'; text-anchor: middle; fill: #333333" x="375.661094" y="275.302687" transform="rotate(-0 375.661094 275.302687)">20</text>
     </g>
    </g>
    <g id="xtick_14">
     <g id="line2d_28">
      <g>
       <use xlink:href="#ma33556841e" x="441.691094" y="262.008" style="fill: #b4bbc2; stroke: #b4bbc2; stroke-width: 0.7"/>
      </g>
     </g>
     <g id="text_16">
      <text style="font-size: 8.5px; font-family: 'Microsoft YaHei'; text-anchor: middle; fill: #333333" x="441.691094" y="275.302687" transform="rotate(-0 441.691094 275.302687)">24</text>
     </g>
    </g>
    <g id="text_17">
     <text style="font-size: 9.5px; font-family: 'Microsoft YaHei'; text-anchor: middle; fill: #333333" x="243.601094" y="289.009797" transform="rotate(-0 243.601094 289.009797)">时刻 / h</text>
    </g>
   </g>
   <g id="matplotlib.axis_4">
    <g id="ytick_7">
     <g id="line2d_29">
      <path d="M 45.511094 242.704738 
L 441.691094 242.704738 
" clip-path="url(#p808fc1f6fb)" style="fill: none; stroke: #dfe3e7; stroke-opacity: 0.2; stroke-width: 0.5; stroke-linecap: square"/>
     </g>
     <g id="line2d_30">
      <g>
       <use xlink:href="#m4af3cb5f53" x="45.511094" y="242.704738" style="fill: #b4bbc2; stroke: #b4bbc2; stroke-width: 0.7"/>
      </g>
     </g>
     <g id="text_18">
      <text style="font-size: 8.5px; font-family: 'Microsoft YaHei'; text-anchor: end; fill: #333333" x="39.011094" y="246.102081" transform="rotate(-0 39.011094 246.102081)">-2500</text>
     </g>
    </g>
    <g id="ytick_8">
     <g id="line2d_31">
      <path d="M 45.511094 219.139063 
L 441.691094 219.139063 
" clip-path="url(#p808fc1f6fb)" style="fill: none; stroke: #dfe3e7; stroke-opacity: 0.2; stroke-width: 0.5; stroke-linecap: square"/>
     </g>
     <g id="line2d_32">
      <g>
       <use xlink:href="#m4af3cb5f53" x="45.511094" y="219.139063" style="fill: #b4bbc2; stroke: #b4bbc2; stroke-width: 0.7"/>
      </g>
     </g>
     <g id="text_19">
      <text style="font-size: 8.5px; font-family: 'Microsoft YaHei'; text-anchor: end; fill: #333333" x="39.011094" y="222.536407" transform="rotate(-0 39.011094 222.536407)">0</text>
     </g>
    </g>
    <g id="ytick_9">
     <g id="line2d_33">
      <path d="M 45.511094 195.573388 
L 441.691094 195.573388 
" clip-path="url(#p808fc1f6fb)" style="fill: none; stroke: #dfe3e7; stroke-opacity: 0.2; stroke-width: 0.5; stroke-linecap: square"/>
     </g>
     <g id="line2d_34">
      <g>
       <use xlink:href="#m4af3cb5f53" x="45.511094" y="195.573388" style="fill: #b4bbc2; stroke: #b4bbc2; stroke-width: 0.7"/>
      </g>
     </g>
     <g id="text_20">
      <text style="font-size: 8.5px; font-family: 'Microsoft YaHei'; text-anchor: end; fill: #333333" x="39.011094" y="198.970732" transform="rotate(-0 39.011094 198.970732)">2500</text>
     </g>
    </g>
    <g id="ytick_10">
     <g id="line2d_35">
      <path d="M 45.511094 172.007713 
L 441.691094 172.007713 
" clip-path="url(#p808fc1f6fb)" style="fill: none; stroke: #dfe3e7; stroke-opacity: 0.2; stroke-width: 0.5; stroke-linecap: square"/>
     </g>
     <g id="line2d_36">
      <g>
       <use xlink:href="#m4af3cb5f53" x="45.511094" y="172.007713" style="fill: #b4bbc2; stroke: #b4bbc2; stroke-width: 0.7"/>
      </g>
     </g>
     <g id="text_21">
      <text style="font-size: 8.5px; font-family: 'Microsoft YaHei'; text-anchor: end; fill: #333333" x="39.011094" y="175.405057" transform="rotate(-0 39.011094 175.405057)">5000</text>
     </g>
    </g>
    <g id="ytick_11">
     <g id="line2d_37">
      <path d="M 45.511094 148.442038 
L 441.691094 148.442038 
" clip-path="url(#p808fc1f6fb)" style="fill: none; stroke: #dfe3e7; stroke-opacity: 0.2; stroke-width: 0.5; stroke-linecap: square"/>
     </g>
     <g id="line2d_38">
      <g>
       <use xlink:href="#m4af3cb5f53" x="45.511094" y="148.442038" style="fill: #b4bbc2; stroke: #b4bbc2; stroke-width: 0.7"/>
      </g>
     </g>
     <g id="text_22">
      <text style="font-size: 8.5px; font-family: 'Microsoft YaHei'; text-anchor: end; fill: #333333" x="39.011094" y="151.839382" transform="rotate(-0 39.011094 151.839382)">7500</text>
     </g>
    </g>
    <g id="text_23">
     <text style="font-size: 9.5px; font-family: 'Microsoft YaHei'; text-anchor: middle; fill: #333333" x="9.034062" y="195.60433" transform="rotate(-90 9.034062 195.60433)">净负荷 / MW</text>
    </g>
   </g>
   <g id="FillBetweenPolyCollection_1">
    <defs>
     <path id="m6a5696aa7d" d="M 194.714738 -73.672375 
L 210.586094 -52.749372 
L 227.093594 -40.339486 
L 243.601094 -36.840135 
L 260.108594 -52.63851 
L 275.968074 -73.672375 
L 260.108594 -73.672375 
L 243.601094 -73.672375 
L 227.093594 -73.672375 
L 210.586094 -73.672375 
z
" style="stroke: #7e9b84; stroke-opacity: 0.12"/>
    </defs>
    <g clip-path="url(#p808fc1f6fb)">
     <use xlink:href="#m6a5696aa7d" x="0" y="292.811438" style="fill: #7e9b84; fill-opacity: 0.12; stroke: #7e9b84; stroke-opacity: 0.12"/>
    </g>
   </g>
   <g id="line2d_39">
    <path d="M 45.511094 219.139063 
L 441.691094 219.139063 
" clip-path="url(#p808fc1f6fb)" style="fill: none; stroke: #b4bbc2; stroke-width: 0.7; stroke-linecap: square"/>
   </g>
   <g id="patch_7">
    <path d="M 45.511094 262.008 
L 45.511094 129.200661 
" style="fill: none; stroke: #b4bbc2; stroke-width: 0.7; stroke-linejoin: miter; stroke-linecap: square"/>
   </g>
   <g id="patch_8">
    <path d="M 45.511094 262.008 
L 441.691094 262.008 
" style="fill: none; stroke: #b4bbc2; stroke-width: 0.7; stroke-linejoin: miter; stroke-linecap: square"/>
   </g>
   <g id="line2d_40">
    <path d="M 45.511094 153.982704 
L 62.018594 153.406958 
L 78.526094 152.732577 
L 95.033594 152.21415 
L 111.541094 151.712176 
L 128.048594 151.733612 
L 144.556094 153.918393 
L 161.063594 176.730913 
L 177.571094 190.732321 
L 194.078594 218.300442 
L 210.586094 240.062066 
L 227.093594 252.471951 
L 243.601094 255.971303 
L 260.108594 240.172927 
L 276.616094 218.279617 
L 293.123594 188.294259 
L 309.631094 155.205158 
L 326.138594 135.237358 
L 342.646094 141.426805 
L 359.153594 138.671411 
L 375.661094 138.048112 
L 392.168594 141.161144 
L 408.676094 155.256765 
L 425.183594 154.41292 
" clip-path="url(#p808fc1f6fb)" style="fill: none; stroke: #5b6470; stroke-width: 1.4; stroke-linecap: square"/>
   </g>
   <g id="text_24">
    <text style="font-size: 7.5px; font-family: 'Microsoft YaHei'; text-anchor: middle; fill: #333333" x="235.347344" y="245.392107" transform="rotate(-0 235.347344 245.392107)">光伏富余</text>
   </g>
   <g id="text_25">
    <text style="font-size: 9px; font-family: 'Microsoft YaHei'; text-anchor: end; fill: #333333" x="436.936934" y="255.122399" transform="rotate(-0 436.936934 255.122399)">(b) 净负荷</text>
   </g>
  </g>
 </g>
 <defs>
  <clipPath id="p3ccea4bfd3">
   <rect x="45.511094" y="1.44" width="396.18" height="106.245872"/>
  </clipPath>
  <clipPath id="p808fc1f6fb">
   <rect x="45.511094" y="129.200661" width="396.18" height="132.807339"/>
  </clipPath>
 </defs>
</svg>
