<?xml version="1.0" encoding="utf-8" standalone="no"?>
<!DOCTYPE svg PUBLIC "-//W3C//DTD SVG 1.1//EN"
  "http://www.w3.org/Graphics/SVG/1.1/DTD/svg11.dtd">
<svg xmlns:xlink="http://www.w3.org/1999/xlink" width="673.033125pt" height="263.2975pt" viewBox="0 0 673.033125 263.2975" xmlns="http://www.w3.org/2000/svg" version="1.1">
 <metadata>
  <rdf:RDF xmlns:dc="http://purl.org/dc/elements/1.1/" xmlns:cc="http://creativecommons.org/ns#" xmlns:rdf="http://www.w3.org/1999/02/22-rdf-syntax-ns#">
   <cc:Work>
    <dc:type rdf:resource="http://purl.org/dc/dcmitype/StillImage"/>
    <dc:date>2026-09-12T11:41:44.219570</dc:date>
    <dc:format>image/svg+xml</dc:format>
    <dc:creator>
     <cc:Agent>
      <dc:title>Matplotlib v3.10.0, https://matplotlib.org/</dc:title>
     </cc:Agent>
    </dc:creator>
   </cc:Work>
  </rdf:RDF>
 </metadata>
 <defs>
  <style type="text/css">*{stroke-linejoin: round; stroke-linecap: butt}</style>
 </defs>
 <g id="figure_1">
  <g id="patch_1">
   <path d="M 0 263.2975 
L 673.033125 263.2975 
L 673.033125 0 
L 0 0 
z
" style="fill: #ffffff"/>
  </g>
  <g id="axes_1">
   <g id="patch_2">
    <path d="M 105.198563 226.234063 
L 567.834562 226.234063 
L 567.834562 44.794063 
L 105.198563 44.794063 
z
" style="fill: #ffffff"/>
   </g>
   <g id="patch_3">
    <path d="M 105.198563 208.387505 
L 567.834562 208.387505 
L 567.834562 65.615046 
L 105.198563 65.615046 
z
" clip-path="url(#p2e8d87a478)" style="fill: #c6d3c8; opacity: 0.16; stroke: #c6d3c8; stroke-linejoin: miter"/>
   </g>
   <g id="matplotlib.axis_1">
    <g id="xtick_1">
     <g id="line2d_1">
      <defs>
       <path id="ma92dc8b8db" d="M 0 0 
L 0 3.5 
" style="stroke: #333333; stroke-width: 0.8"/>
      </defs>
      <g>
       <use xlink:href="#ma92dc8b8db" x="105.198563" y="226.234063" style="fill: #333333; stroke: #333333; stroke-width: 0.8"/>
      </g>
     </g>
     <g id="text_1">
      <text style="font-size: 8.5px; font-family: 'Microsoft YaHei', 'DejaVu Sans', sans-serif; text-anchor: middle; fill: #333333" x="105.198563" y="240.02875" transform="rotate(-0 105.198563 240.02875)">0</text>
     </g>
    </g>
    <g id="xtick_2">
     <g id="line2d_2">
      <g>
       <use xlink:href="#ma92dc8b8db" x="143.751563" y="226.234063" style="fill: #333333; stroke: #333333; stroke-width: 0.8"/>
      </g>
     </g>
     <g id="text_2">
      <text style="font-size: 8.5px; font-family: 'Microsoft YaHei', 'DejaVu Sans', sans-serif; text-anchor: middle; fill: #333333" x="143.751563" y="240.02875" transform="rotate(-0 143.751563 240.02875)">2</text>
     </g>
    </g>
    <g id="xtick_3">
     <g id="line2d_3">
      <g>
       <use xlink:href="#ma92dc8b8db" x="182.304563" y="226.234063" style="fill: #333333; stroke: #333333; stroke-width: 0.8"/>
      </g>
     </g>
     <g id="text_3">
      <text style="font-size: 8.5px; font-family: 'Microsoft YaHei', 'DejaVu Sans', sans-serif; text-anchor: middle; fill: #333333" x="182.304563" y="240.02875" transform="rotate(-0 182.304563 240.02875)">4</text>
     </g>
    </g>
    <g id="xtick_4">
     <g id="line2d_4">
      <g>
       <use xlink:href="#ma92dc8b8db" x="220.857563" y="226.234063" style="fill: #333333; stroke: #333333; stroke-width: 0.8"/>
      </g>
     </g>
     <g id="text_4">
      <text style="font-size: 8.5px; font-family: 'Microsoft YaHei', 'DejaVu Sans', sans-serif; text-anchor: middle; fill: #333333" x="220.857563" y="240.02875" transform="rotate(-0 220.857563 240.02875)">6</text>
     </g>
    </g>
    <g id="xtick_5">
     <g id="line2d_5">
      <g>
       <use xlink:href="#ma92dc8b8db" x="259.410562" y="226.234063" style="fill: #333333; stroke: #333333; stroke-width: 0.8"/>
      </g>
     </g>
     <g id="text_5">
      <text style="font-size: 8.5px; font-family: 'Microsoft YaHei', 'DejaVu Sans', sans-serif; text-anchor: middle; fill: #333333" x="259.410562" y="240.02875" transform="rotate(-0 259.410562 240.02875)">8</text>
     </g>
    </g>
    <g id="xtick_6">
     <g id="line2d_6">
      <g>
       <use xlink:href="#ma92dc8b8db" x="297.963562" y="226.234063" style="fill: #333333; stroke: #333333; stroke-width: 0.8"/>
      </g>
     </g>
     <g id="text_6">
      <text style="font-size: 8.5px; font-family: 'Microsoft YaHei', 'DejaVu Sans', sans-serif; text-anchor: middle; fill: #333333" x="297.963562" y="240.02875" transform="rotate(-0 297.963562 240.02875)">10</text>
     </g>
    </g>
    <g id="xtick_7">
     <g id="line2d_7">
      <g>
       <use xlink:href="#ma92dc8b8db" x="336.516562" y="226.234063" style="fill: #333333; stroke: #333333; stroke-width: 0.8"/>
      </g>
     </g>
     <g id="text_7">
      <text style="font-size: 8.5px; font-family: 'Microsoft YaHei', 'DejaVu Sans', sans-serif; text-anchor: middle; fill: #333333" x="336.516562" y="240.02875" transform="rotate(-0 336.516562 240.02875)">12</text>
     </g>
    </g>
    <g id="xtick_8">
     <g id="line2d_8">
      <g>
       <use xlink:href="#ma92dc8b8db" x="375.069562" y="226.234063" style="fill: #333333; stroke: #333333; stroke-width: 0.8"/>
      </g>
     </g>
     <g id="text_8">
      <text style="font-size: 8.5px; font-family: 'Microsoft YaHei', 'DejaVu Sans', sans-serif; text-anchor: middle; fill: #333333" x="375.069562" y="240.02875" transform="rotate(-0 375.069562 240.02875)">14</text>
     </g>
    </g>
    <g id="xtick_9">
     <g id="line2d_9">
      <g>
       <use xlink:href="#ma92dc8b8db" x="413.622562" y="226.234063" style="fill: #333333; stroke: #333333; stroke-width: 0.8"/>
      </g>
     </g>
     <g id="text_9">
      <text style="font-size: 8.5px; font-family: 'Microsoft YaHei', 'DejaVu Sans', sans-serif; text-anchor: middle; fill: #333333" x="413.622562" y="240.02875" transform="rotate(-0 413.622562 240.02875)">16</text>
     </g>
    </g>
    <g id="xtick_10">
     <g id="line2d_10">
      <g>
       <use xlink:href="#ma92dc8b8db" x="452.175562" y="226.234063" style="fill: #333333; stroke: #333333; stroke-width: 0.8"/>
      </g>
     </g>
     <g id="text_10">
      <text style="font-size: 8.5px; font-family: 'Microsoft YaHei', 'DejaVu Sans', sans-serif; text-anchor: middle; fill: #333333" x="452.175562" y="240.02875" transform="rotate(-0 452.175562 240.02875)">18</text>
     </g>
    </g>
    <g id="xtick_11">
     <g id="line2d_11">
      <g>
       <use xlink:href="#ma92dc8b8db" x="490.728562" y="226.234063" style="fill: #333333; stroke: #333333; stroke-width: 0.8"/>
      </g>
     </g>
     <g id="text_11">
      <text style="font-size: 8.5px; font-family: 'Microsoft YaHei', 'DejaVu Sans', sans-serif; text-anchor: middle; fill: #333333" x="490.728562" y="240.02875" transform="rotate(-0 490.728562 240.02875)">20</text>
     </g>
    </g>
    <g id="xtick_12">
     <g id="line2d_12">
      <g>
       <use xlink:href="#ma92dc8b8db" x="529.281562" y="226.234063" style="fill: #333333; stroke: #333333; stroke-width: 0.8"/>
      </g>
     </g>
     <g id="text_12">
      <text style="font-size: 8.5px; font-family: 'Microsoft YaHei', 'DejaVu Sans', sans-serif; text-anchor: middle; fill: #333333" x="529.281562" y="240.02875" transform="rotate(-0 529.281562 240.02875)">22</text>
     </g>
    </g>
    <g id="xtick_13">
     <g id="line2d_13">
      <g>
       <use xlink:href="#ma92dc8b8db" x="567.834562" y="226.234063" style="fill: #333333; stroke: #333333; stroke-width: 0.8"/>
      </g>
     </g>
     <g id="text_13">
      <text style="font-size: 8.5px; font-family: 'Microsoft YaHei', 'DejaVu Sans', sans-serif; text-anchor: middle; fill: #333333" x="567.834562" y="240.02875" transform="rotate(-0 567.834562 240.02875)">24</text>
     </g>
    </g>
    <g id="text_14">
     <text style="font-size: 9.5px; font-family: 'Microsoft YaHei', 'DejaVu Sans', sans-serif; text-anchor: middle; fill: #333333" x="336.516562" y="253.735859" transform="rotate(-0 336.516562 253.735859)">时刻 / 时</text>
    </g>
   </g>
   <g id="matplotlib.axis_2">
    <g id="ytick_1">
     <g id="line2d_14">
      <path d="M 105.198563 226.234063 
L 567.834562 226.234063 
" clip-path="url(#p2e8d87a478)" style="fill: none; stroke: #dfe3e7; stroke-opacity: 0.3; stroke-width: 0.5; stroke-linecap: square"/>
     </g>
     <g id="line2d_15">
      <defs>
       <path id="me548d098c8" d="M 0 0 
L -3.5 0 
" style="stroke: #333333; stroke-width: 0.8"/>
      </defs>
      <g>
       <use xlink:href="#me548d098c8" x="105.198563" y="226.234063" style="fill: #333333; stroke: #333333; stroke-width: 0.8"/>
      </g>
     </g>
     <g id="text_15">
      <text style="font-size: 8.5px; font-family: 'Microsoft YaHei', 'DejaVu Sans', sans-serif; text-anchor: end; fill: #333333" x="98.198563" y="229.631406" transform="rotate(-0 98.198563 229.631406)">0</text>
     </g>
    </g>
    <g id="ytick_2">
     <g id="line2d_16">
      <path d="M 105.198563 189.053735 
L 567.834562 189.053735 
" clip-path="url(#p2e8d87a478)" style="fill: none; stroke: #dfe3e7; stroke-opacity: 0.3; stroke-width: 0.5; stroke-linecap: square"/>
     </g>
     <g id="line2d_17">
      <g>
       <use xlink:href="#me548d098c8" x="105.198563" y="189.053735" style="fill: #333333; stroke: #333333; stroke-width: 0.8"/>
      </g>
     </g>
     <g id="text_16">
      <text style="font-size: 8.5px; font-family: 'Microsoft YaHei', 'DejaVu Sans', sans-serif; text-anchor: end; fill: #333333" x="98.198563" y="192.451078" transform="rotate(-0 98.198563 192.451078)">2500</text>
     </g>
    </g>
    <g id="ytick_3">
     <g id="line2d_18">
      <path d="M 105.198563 151.873407 
L 567.834562 151.873407 
" clip-path="url(#p2e8d87a478)" style="fill: none; stroke: #dfe3e7; stroke-opacity: 0.3; stroke-width: 0.5; stroke-linecap: square"/>
     </g>
     <g id="line2d_19">
      <g>
       <use xlink:href="#me548d098c8" x="105.198563" y="151.873407" style="fill: #333333; stroke: #333333; stroke-width: 0.8"/>
      </g>
     </g>
     <g id="text_17">
      <text style="font-size: 8.5px; font-family: 'Microsoft YaHei', 'DejaVu Sans', sans-serif; text-anchor: end; fill: #333333" x="98.198563" y="155.270751" transform="rotate(-0 98.198563 155.270751)">5000</text>
     </g>
    </g>
    <g id="ytick_4">
     <g id="line2d_20">
      <path d="M 105.198563 114.693079 
L 567.834562 114.693079 
" clip-path="url(#p2e8d87a478)" style="fill: none; stroke: #dfe3e7; stroke-opacity: 0.3; stroke-width: 0.5; stroke-linecap: square"/>
     </g>
     <g id="line2d_21">
      <g>
       <use xlink:href="#me548d098c8" x="105.198563" y="114.693079" style="fill: #333333; stroke: #333333; stroke-width: 0.8"/>
      </g>
     </g>
     <g id="text_18">
      <text style="font-size: 8.5px; font-family: 'Microsoft YaHei', 'DejaVu Sans', sans-serif; text-anchor: end; fill: #333333" x="98.198563" y="118.090423" transform="rotate(-0 98.198563 118.090423)">7500</text>
     </g>
    </g>
    <g id="ytick_5">
     <g id="line2d_22">
      <path d="M 105.198563 77.512751 
L 567.834562 77.512751 
" clip-path="url(#p2e8d87a478)" style="fill: none; stroke: #dfe3e7; stroke-opacity: 0.3; stroke-width: 0.5; stroke-linecap: square"/>
     </g>
     <g id="line2d_23">
      <g>
       <use xlink:href="#me548d098c8" x="105.198563" y="77.512751" style="fill: #333333; stroke: #333333; stroke-width: 0.8"/>
      </g>
     </g>
     <g id="text_19">
      <text style="font-size: 8.5px; font-family: 'Microsoft YaHei', 'DejaVu Sans', sans-serif; text-anchor: end; fill: #333333" x="98.198563" y="80.910095" transform="rotate(-0 98.198563 80.910095)">10000</text>
     </g>
    </g>
    <g id="text_20">
     <text style="font-size: 9.5px; font-family: 'Microsoft YaHei', 'DejaVu Sans', sans-serif; text-anchor: middle; fill: #333333" x="66.914656" y="135.514063" transform="rotate(-90 66.914656 135.514063)">储电量 / kWh</text>
    </g>
   </g>
   <g id="patch_4">
    <path d="M 105.198563 226.234063 
L 105.198563 44.794063 
" style="fill: none; stroke: #b4bbc2; stroke-width: 0.7; stroke-linejoin: miter; stroke-linecap: square"/>
   </g>
   <g id="patch_5">
    <path d="M 105.198563 226.234063 
L 567.834562 226.234063 
" style="fill: none; stroke: #b4bbc2; stroke-width: 0.7; stroke-linejoin: miter; stroke-linecap: square"/>
   </g>
   <g id="line2d_24">
    <path d="M 105.198563 65.615046 
L 567.834562 65.615046 
" clip-path="url(#p2e8d87a478)" style="fill: none; stroke-dasharray: 5.5,2.2; stroke-dashoffset: 0; stroke: #a9705a; stroke-width: 1.1"/>
   </g>
   <g id="line2d_25">
    <path d="M 105.198563 208.387505 
L 567.834562 208.387505 
" clip-path="url(#p2e8d87a478)" style="fill: none; stroke-dasharray: 5.5,2.2; stroke-dashoffset: 0; stroke: #a9705a; stroke-width: 1.1"/>
   </g>
   <g id="text_21">
    <text style="font-size: 9.5px; font-family: 'Microsoft YaHei', 'DejaVu Sans', sans-serif; text-anchor: middle; fill: #333333" x="336.516562" y="14.794063" transform="rotate(-0 336.516562 14.794063)">四个指定日期的储电量轨迹（全部时段位于运行区间内）</text>
   </g>
   <g id="line2d_26">
    <path d="M 105.198563 196.064012 
L 108.411313 195.957803 
L 124.475063 140.928664 
L 127.687813 130.188438 
L 130.900563 129.859976 
L 137.326063 109.452074 
L 143.751563 109.41638 
L 146.964313 104.692226 
L 150.177063 93.679748 
L 153.389813 93.058944 
L 156.602563 92.557567 
L 159.815313 92.212737 
L 166.240813 91.751715 
L 169.453563 92.153155 
L 175.879063 94.100691 
L 179.091813 94.528684 
L 182.304563 94.764271 
L 185.517313 94.759185 
L 188.730063 94.385048 
L 195.155563 93.379422 
L 198.368313 93.078209 
L 201.581063 93.251373 
L 204.793813 93.672631 
L 208.006563 93.696102 
L 211.219313 93.446807 
L 217.644813 71.586544 
L 220.857563 71.475981 
L 227.283062 98.104806 
L 230.495812 109.836659 
L 233.708562 120.930787 
L 236.921312 131.325495 
L 240.134062 137.42661 
L 246.559562 138.280042 
L 249.772312 138.087911 
L 252.985062 138.466431 
L 256.197812 138.218538 
L 259.410562 143.747303 
L 265.836063 159.792407 
L 269.048812 167.036314 
L 272.261562 173.830524 
L 275.474312 179.327795 
L 278.687063 183.921716 
L 281.899812 188.264716 
L 285.112562 191.921339 
L 288.325312 194.408594 
L 291.538063 195.684051 
L 297.963562 196.962263 
L 301.176312 197.709291 
L 304.389063 197.492338 
L 307.601812 196.759008 
L 310.814562 195.854489 
L 314.027312 194.037981 
L 317.240063 191.577343 
L 320.452812 189.384224 
L 323.665562 178.230126 
L 326.878312 176.759911 
L 330.091063 169.959605 
L 352.580312 91.880916 
L 355.793063 89.564011 
L 359.005812 86.944091 
L 362.218562 85.095961 
L 368.644063 82.614141 
L 375.069562 79.843572 
L 378.282312 78.683702 
L 381.495063 78.30417 
L 384.707812 78.610766 
L 387.920562 79.263769 
L 391.133312 80.425337 
L 394.346063 82.51336 
L 397.558812 79.211074 
L 400.771562 68.20469 
L 403.984312 66.720356 
L 410.409813 66.128481 
L 413.622562 66.779021 
L 420.048063 69.166302 
L 423.260812 69.50106 
L 426.473562 69.427172 
L 432.899063 69.712447 
L 436.111813 70.05284 
L 439.324562 70.215189 
L 442.537312 70.584908 
L 445.750063 70.200273 
L 448.962812 69.598522 
L 452.175562 68.857393 
L 455.388312 68.679563 
L 461.813812 69.383145 
L 468.239312 69.22992 
L 471.452063 74.957929 
L 477.877562 99.908816 
L 493.941312 159.238532 
L 500.366812 184.327492 
L 506.792312 207.659158 
L 510.005063 207.341873 
L 513.217813 206.731152 
L 516.430562 206.268999 
L 519.643312 206.489305 
L 522.856063 206.969406 
L 526.068812 207.893303 
L 529.281562 208.387505 
L 532.494312 208.270599 
L 535.707063 207.162864 
L 542.132562 206.656599 
L 545.345312 206.070768 
L 548.558063 205.3714 
L 561.409063 204.292125 
L 564.621812 205.064346 
L 564.621812 205.064346 
" clip-path="url(#p2e8d87a478)" style="fill: none; stroke: #4c6e91; stroke-width: 1.5; stroke-linecap: square"/>
    <defs>
     <path id="mc6d0786a61" d="M 0 1.7 
C 0.450845 1.7 0.883286 1.520877 1.202082 1.202082 
C 1.520877 0.883286 1.7 0.450845 1.7 0 
C 1.7 -0.450845 1.520877 -0.883286 1.202082 -1.202082 
C 0.883286 -1.520877 0.450845 -1.7 0 -1.7 
C -0.450845 -1.7 -0.883286 -1.520877 -1.202082 -1.202082 
C -1.520877 -0.883286 -1.7 -0.450845 -1.7 0 
C -1.7 0.450845 -1.520877 0.883286 -1.202082 1.202082 
C -0.883286 1.520877 -0.450845 1.7 0 1.7 
z
" style="stroke: #4c6e91; stroke-width: 0.9"/>
    </defs>
    <g clip-path="url(#p2e8d87a478)">
     <use xlink:href="#mc6d0786a61" x="105.198563" y="196.064012" style="fill: #ffffff; stroke: #4c6e91; stroke-width: 0.9"/>
     <use xlink:href="#mc6d0786a61" x="130.900563" y="129.859976" style="fill: #ffffff; stroke: #4c6e91; stroke-width: 0.9"/>
     <use xlink:href="#mc6d0786a61" x="156.602563" y="92.557567" style="fill: #ffffff; stroke: #4c6e91; stroke-width: 0.9"/>
     <use xlink:href="#mc6d0786a61" x="182.304563" y="94.764271" style="fill: #ffffff; stroke: #4c6e91; stroke-width: 0.9"/>
     <use xlink:href="#mc6d0786a61" x="208.006563" y="93.696102" style="fill: #ffffff; stroke: #4c6e91; stroke-width: 0.9"/>
     <use xlink:href="#mc6d0786a61" x="233.708562" y="120.930787" style="fill: #ffffff; stroke: #4c6e91; stroke-width: 0.9"/>
     <use xlink:href="#mc6d0786a61" x="259.410562" y="143.747303" style="fill: #ffffff; stroke: #4c6e91; stroke-width: 0.9"/>
     <use xlink:href="#mc6d0786a61" x="285.112562" y="191.921339" style="fill: #ffffff; stroke: #4c6e91; stroke-width: 0.9"/>
     <use xlink:href="#mc6d0786a61" x="310.814562" y="195.854489" style="fill: #ffffff; stroke: #4c6e91; stroke-width: 0.9"/>
     <use xlink:href="#mc6d0786a61" x="336.516562" y="147.651408" style="fill: #ffffff; stroke: #4c6e91; stroke-width: 0.9"/>
     <use xlink:href="#mc6d0786a61" x="362.218562" y="85.095961" style="fill: #ffffff; stroke: #4c6e91; stroke-width: 0.9"/>
     <use xlink:href="#mc6d0786a61" x="387.920562" y="79.263769" style="fill: #ffffff; stroke: #4c6e91; stroke-width: 0.9"/>
     <use xlink:href="#mc6d0786a61" x="413.622562" y="66.779021" style="fill: #ffffff; stroke: #4c6e91; stroke-width: 0.9"/>
     <use xlink:href="#mc6d0786a61" x="439.324562" y="70.215189" style="fill: #ffffff; stroke: #4c6e91; stroke-width: 0.9"/>
     <use xlink:href="#mc6d0786a61" x="465.026562" y="69.310353" style="fill: #ffffff; stroke: #4c6e91; stroke-width: 0.9"/>
     <use xlink:href="#mc6d0786a61" x="490.728562" y="147.235593" style="fill: #ffffff; stroke: #4c6e91; stroke-width: 0.9"/>
     <use xlink:href="#mc6d0786a61" x="516.430562" y="206.268999" style="fill: #ffffff; stroke: #4c6e91; stroke-width: 0.9"/>
     <use xlink:href="#mc6d0786a61" x="542.132562" y="206.656599" style="fill: #ffffff; stroke: #4c6e91; stroke-width: 0.9"/>
    </g>
   </g>
   <g id="line2d_27">
    <path d="M 105.198563 152.724273 
L 108.411313 152.36795 
L 111.624063 148.397913 
L 114.836813 137.243815 
L 118.049563 136.601752 
L 121.262313 134.751455 
L 124.475063 132.652039 
L 127.687813 130.999083 
L 130.900563 129.126384 
L 134.113313 127.912315 
L 137.326063 127.660589 
L 140.538813 127.210187 
L 143.751563 126.568697 
L 153.389813 125.292111 
L 156.602563 124.344443 
L 159.815313 123.624205 
L 163.028063 122.667182 
L 166.240813 122.084732 
L 169.453563 122.161112 
L 172.666313 121.920803 
L 175.879063 121.040164 
L 179.091813 120.035966 
L 182.304563 118.601321 
L 185.517313 116.668134 
L 188.730063 115.712405 
L 191.942813 115.411665 
L 195.155563 114.617262 
L 198.368313 113.247247 
L 201.581063 112.21056 
L 204.793813 111.993287 
L 208.006563 111.442763 
L 211.219313 110.772622 
L 214.432063 110.245918 
L 217.644813 99.366045 
L 220.857563 104.935409 
L 224.070312 110.03308 
L 227.283062 114.857641 
L 230.495812 118.930479 
L 233.708562 121.679365 
L 236.921312 123.288616 
L 240.134062 124.713235 
L 243.346812 126.37952 
L 246.559562 127.425234 
L 249.772312 127.78758 
L 252.985062 127.675955 
L 256.197812 126.83315 
L 259.410562 125.276434 
L 262.623312 123.177088 
L 265.836063 120.560977 
L 272.261562 114.75656 
L 278.687063 108.448973 
L 281.899812 106.00521 
L 285.112562 103.861276 
L 288.325312 100.983921 
L 291.538063 96.589847 
L 294.750812 90.953214 
L 304.389063 72.873893 
L 307.601812 66.328439 
L 310.814562 65.615046 
L 468.239312 65.615046 
L 471.452063 66.834471 
L 474.664813 77.423863 
L 477.877562 88.453873 
L 481.090312 98.653625 
L 484.303063 107.724193 
L 490.728562 126.955946 
L 493.941312 135.740473 
L 497.154063 144.961846 
L 500.366812 155.221381 
L 506.792312 176.818895 
L 510.005063 174.975429 
L 513.217813 172.634371 
L 516.430562 170.592645 
L 519.643312 169.000358 
L 522.856063 167.92971 
L 526.068812 167.461931 
L 529.281562 166.410412 
L 532.494312 164.794267 
L 535.707063 161.727747 
L 542.132562 161.551116 
L 551.770813 158.940768 
L 561.409063 155.066268 
L 564.621812 154.043524 
L 564.621812 154.043524 
" clip-path="url(#p2e8d87a478)" style="fill: none; stroke-dasharray: 5.55,2.4; stroke-dashoffset: 0; stroke: #9aa4ae; stroke-width: 1.5"/>
    <defs>
     <path id="m27ed3453b1" d="M -1.7 1.7 
L 1.7 1.7 
L 1.7 -1.7 
L -1.7 -1.7 
z
" style="stroke: #9aa4ae; stroke-width: 0.9; stroke-linejoin: miter"/>
    </defs>
    <g clip-path="url(#p2e8d87a478)">
     <use xlink:href="#m27ed3453b1" x="105.198563" y="152.724273" style="fill: #ffffff; stroke: #9aa4ae; stroke-width: 0.9; stroke-linejoin: miter"/>
     <use xlink:href="#m27ed3453b1" x="130.900563" y="129.126384" style="fill: #ffffff; stroke: #9aa4ae; stroke-width: 0.9; stroke-linejoin: miter"/>
     <use xlink:href="#m27ed3453b1" x="156.602563" y="124.344443" style="fill: #ffffff; stroke: #9aa4ae; stroke-width: 0.9; stroke-linejoin: miter"/>
     <use xlink:href="#m27ed3453b1" x="182.304563" y="118.601321" style="fill: #ffffff; stroke: #9aa4ae; stroke-width: 0.9; stroke-linejoin: miter"/>
     <use xlink:href="#m27ed3453b1" x="208.006563" y="111.442763" style="fill: #ffffff; stroke: #9aa4ae; stroke-width: 0.9; stroke-linejoin: miter"/>
     <use xlink:href="#m27ed3453b1" x="233.708562" y="121.679365" style="fill: #ffffff; stroke: #9aa4ae; stroke-width: 0.9; stroke-linejoin: miter"/>
     <use xlink:href="#m27ed3453b1" x="259.410562" y="125.276434" style="fill: #ffffff; stroke: #9aa4ae; stroke-width: 0.9; stroke-linejoin: miter"/>
     <use xlink:href="#m27ed3453b1" x="285.112562" y="103.861276" style="fill: #ffffff; stroke: #9aa4ae; stroke-width: 0.9; stroke-linejoin: miter"/>
     <use xlink:href="#m27ed3453b1" x="310.814562" y="65.615046" style="fill: #ffffff; stroke: #9aa4ae; stroke-width: 0.9; stroke-linejoin: miter"/>
     <use xlink:href="#m27ed3453b1" x="336.516562" y="65.615046" style="fill: #ffffff; stroke: #9aa4ae; stroke-width: 0.9; stroke-linejoin: miter"/>
     <use xlink:href="#m27ed3453b1" x="362.218562" y="65.615046" style="fill: #ffffff; stroke: #9aa4ae; stroke-width: 0.9; stroke-linejoin: miter"/>
     <use xlink:href="#m27ed3453b1" x="387.920562" y="65.615046" style="fill: #ffffff; stroke: #9aa4ae; stroke-width: 0.9; stroke-linejoin: miter"/>
     <use xlink:href="#m27ed3453b1" x="413.622562" y="65.615046" style="fill: #ffffff; stroke: #9aa4ae; stroke-width: 0.9; stroke-linejoin: miter"/>
     <use xlink:href="#m27ed3453b1" x="439.324562" y="65.615046" style="fill: #ffffff; stroke: #9aa4ae; stroke-width: 0.9; stroke-linejoin: miter"/>
     <use xlink:href="#m27ed3453b1" x="465.026562" y="65.615046" style="fill: #ffffff; stroke: #9aa4ae; stroke-width: 0.9; stroke-linejoin: miter"/>
     <use xlink:href="#m27ed3453b1" x="490.728562" y="126.955946" style="fill: #ffffff; stroke: #9aa4ae; stroke-width: 0.9; stroke-linejoin: miter"/>
     <use xlink:href="#m27ed3453b1" x="516.430562" y="170.592645" style="fill: #ffffff; stroke: #9aa4ae; stroke-width: 0.9; stroke-linejoin: miter"/>
     <use xlink:href="#m27ed3453b1" x="542.132562" y="161.551116" style="fill: #ffffff; stroke: #9aa4ae; stroke-width: 0.9; stroke-linejoin: miter"/>
    </g>
   </g>
   <g id="line2d_28">
    <path d="M 105.198563 208.316949 
L 108.411313 208.316759 
L 114.836813 186.008562 
L 127.687813 144.947606 
L 130.900563 140.1544 
L 134.113313 130.080561 
L 137.326063 119.19927 
L 140.538813 119.119607 
L 143.751563 119.21219 
L 150.177063 98.173458 
L 156.602563 99.729152 
L 159.815313 100.25213 
L 166.240813 100.471625 
L 172.666313 101.633742 
L 175.879063 101.757094 
L 179.091813 101.648649 
L 185.517313 102.233919 
L 191.942813 101.674443 
L 195.155563 102.07492 
L 201.581063 102.268908 
L 204.793813 102.712566 
L 208.006563 103.534147 
L 211.219313 104.638378 
L 217.644813 82.511652 
L 220.857563 82.438656 
L 230.495812 120.695258 
L 233.708562 132.104971 
L 236.921312 142.525113 
L 240.134062 152.190051 
L 243.346812 161.215989 
L 246.559562 169.225835 
L 249.772312 172.0767 
L 252.985062 172.118242 
L 256.197812 171.730549 
L 259.410562 177.641894 
L 262.623312 185.760831 
L 265.836063 192.771009 
L 269.048812 198.394321 
L 272.261562 203.729925 
L 275.474312 208.144713 
L 278.687063 208.387505 
L 304.389063 208.372561 
L 307.601812 207.758011 
L 310.814562 205.965347 
L 314.027312 204.000588 
L 317.240063 202.28982 
L 320.452812 200.306365 
L 323.665562 194.711043 
L 333.303812 182.122858 
L 336.516562 173.336075 
L 339.729312 163.214279 
L 342.942063 152.272054 
L 349.367562 132.736894 
L 352.580312 121.582795 
L 355.793063 116.105971 
L 359.005812 112.254221 
L 365.431312 104.881051 
L 368.644063 101.553432 
L 371.856813 98.803686 
L 375.069562 96.714909 
L 378.282312 95.185832 
L 381.495063 93.982626 
L 384.707812 93.579653 
L 387.920562 94.633234 
L 391.133312 96.90182 
L 394.346063 100.24939 
L 397.558812 99.685792 
L 400.771562 98.540518 
L 403.984312 99.087735 
L 407.197063 99.346926 
L 410.409813 98.928145 
L 413.622562 99.261065 
L 416.835312 101.171772 
L 420.048063 102.80368 
L 423.260812 104.042585 
L 429.686312 107.83565 
L 432.899063 108.582677 
L 436.111813 108.822102 
L 442.537312 110.68297 
L 445.750063 111.248841 
L 455.388312 113.697186 
L 458.601063 114.857485 
L 461.813812 116.236865 
L 465.026562 118.8405 
L 468.239312 121.225835 
L 471.452063 124.030279 
L 477.877562 150.081717 
L 484.303063 177.238436 
L 490.728562 203.19948 
L 493.941312 208.387505 
L 532.494312 208.387505 
L 535.707063 204.787171 
L 538.919812 205.468594 
L 542.132562 206.779232 
L 545.345312 207.127837 
L 548.558063 206.85842 
L 551.770813 206.733985 
L 554.983562 207.025754 
L 558.196312 207.562915 
L 561.409063 208.274746 
L 564.621812 208.387505 
L 564.621812 208.387505 
" clip-path="url(#p2e8d87a478)" style="fill: none; stroke-dasharray: 9.6,2.4,1.5,2.4; stroke-dashoffset: 0; stroke: #7e9b84; stroke-width: 1.5"/>
    <defs>
     <path id="m2a30f865a0" d="M 0 -1.7 
L -1.7 1.7 
L 1.7 1.7 
z
" style="stroke: #7e9b84; stroke-width: 0.9; stroke-linejoin: miter"/>
    </defs>
    <g clip-path="url(#p2e8d87a478)">
     <use xlink:href="#m2a30f865a0" x="105.198563" y="208.316949" style="fill: #ffffff; stroke: #7e9b84; stroke-width: 0.9; stroke-linejoin: miter"/>
     <use xlink:href="#m2a30f865a0" x="130.900563" y="140.1544" style="fill: #ffffff; stroke: #7e9b84; stroke-width: 0.9; stroke-linejoin: miter"/>
     <use xlink:href="#m2a30f865a0" x="156.602563" y="99.729152" style="fill: #ffffff; stroke: #7e9b84; stroke-width: 0.9; stroke-linejoin: miter"/>
     <use xlink:href="#m2a30f865a0" x="182.304563" y="101.969164" style="fill: #ffffff; stroke: #7e9b84; stroke-width: 0.9; stroke-linejoin: miter"/>
     <use xlink:href="#m2a30f865a0" x="208.006563" y="103.534147" style="fill: #ffffff; stroke: #7e9b84; stroke-width: 0.9; stroke-linejoin: miter"/>
     <use xlink:href="#m2a30f865a0" x="233.708562" y="132.104971" style="fill: #ffffff; stroke: #7e9b84; stroke-width: 0.9; stroke-linejoin: miter"/>
     <use xlink:href="#m2a30f865a0" x="259.410562" y="177.641894" style="fill: #ffffff; stroke: #7e9b84; stroke-width: 0.9; stroke-linejoin: miter"/>
     <use xlink:href="#m2a30f865a0" x="285.112562" y="208.387505" style="fill: #ffffff; stroke: #7e9b84; stroke-width: 0.9; stroke-linejoin: miter"/>
     <use xlink:href="#m2a30f865a0" x="310.814562" y="205.965347" style="fill: #ffffff; stroke: #7e9b84; stroke-width: 0.9; stroke-linejoin: miter"/>
     <use xlink:href="#m2a30f865a0" x="336.516562" y="173.336075" style="fill: #ffffff; stroke: #7e9b84; stroke-width: 0.9; stroke-linejoin: miter"/>
     <use xlink:href="#m2a30f865a0" x="362.218562" y="108.614715" style="fill: #ffffff; stroke: #7e9b84; stroke-width: 0.9; stroke-linejoin: miter"/>
     <use xlink:href="#m2a30f865a0" x="387.920562" y="94.633234" style="fill: #ffffff; stroke: #7e9b84; stroke-width: 0.9; stroke-linejoin: miter"/>
     <use xlink:href="#m2a30f865a0" x="413.622562" y="99.261065" style="fill: #ffffff; stroke: #7e9b84; stroke-width: 0.9; stroke-linejoin: miter"/>
     <use xlink:href="#m2a30f865a0" x="439.324562" y="109.714053" style="fill: #ffffff; stroke: #7e9b84; stroke-width: 0.9; stroke-linejoin: miter"/>
     <use xlink:href="#m2a30f865a0" x="465.026562" y="118.8405" style="fill: #ffffff; stroke: #7e9b84; stroke-width: 0.9; stroke-linejoin: miter"/>
     <use xlink:href="#m2a30f865a0" x="490.728562" y="203.19948" style="fill: #ffffff; stroke: #7e9b84; stroke-width: 0.9; stroke-linejoin: miter"/>
     <use xlink:href="#m2a30f865a0" x="516.430562" y="208.387505" style="fill: #ffffff; stroke: #7e9b84; stroke-width: 0.9; stroke-linejoin: miter"/>
     <use xlink:href="#m2a30f865a0" x="542.132562" y="206.779232" style="fill: #ffffff; stroke: #7e9b84; stroke-width: 0.9; stroke-linejoin: miter"/>
    </g>
   </g>
   <g id="line2d_29">
    <path d="M 105.198563 170.724637 
L 108.411313 170.556464 
L 118.049563 137.954829 
L 127.687813 104.492534 
L 130.900563 104.51275 
L 134.113313 104.68953 
L 137.326063 93.828227 
L 140.538813 94.262115 
L 143.751563 94.327039 
L 146.964313 93.554666 
L 150.177063 82.447057 
L 153.389813 82.452426 
L 159.815313 81.165012 
L 166.240813 79.828541 
L 169.453563 80.669779 
L 172.666313 81.379125 
L 175.879063 80.658088 
L 179.091813 80.729708 
L 182.304563 81.310664 
L 185.517313 81.586907 
L 188.730063 81.604542 
L 191.942813 81.510198 
L 195.155563 80.876165 
L 198.368313 81.120961 
L 201.581063 81.103544 
L 204.793813 80.917399 
L 208.006563 80.850553 
L 211.219313 81.077015 
L 214.432063 78.024366 
L 217.644813 66.957867 
L 220.857563 67.340982 
L 224.070312 68.076722 
L 227.283062 80.688252 
L 230.495812 80.566556 
L 233.708562 81.099199 
L 236.921312 80.93776 
L 243.346812 79.258049 
L 249.772312 78.222645 
L 252.985062 77.35396 
L 256.197812 66.199861 
L 259.410562 65.745379 
L 262.623312 79.384431 
L 275.474312 130.186971 
L 278.687063 141.424951 
L 281.899812 152.204664 
L 285.112562 161.855085 
L 288.325312 170.574869 
L 291.538063 177.946157 
L 294.750812 177.542517 
L 297.963562 177.465643 
L 301.176312 183.41957 
L 304.389063 188.892409 
L 307.601812 187.211024 
L 310.814562 186.839038 
L 314.027312 192.607433 
L 317.240063 192.554512 
L 320.452812 181.666495 
L 323.665562 171.339006 
L 326.878312 161.688333 
L 330.091063 151.669279 
L 342.942063 107.152949 
L 352.580312 73.690654 
L 355.793063 65.615046 
L 375.069562 65.615046 
L 384.707812 80.726705 
L 387.920562 87.075405 
L 391.133312 94.187329 
L 394.346063 102.301444 
L 403.984312 68.839149 
L 407.197063 65.615046 
L 432.899063 65.615046 
L 436.111813 65.985874 
L 439.324562 65.656819 
L 448.962812 65.615046 
L 452.175562 65.615046 
L 455.388312 66.607802 
L 458.601063 69.029882 
L 461.813812 69.432655 
L 465.026562 70.550014 
L 468.239312 71.542613 
L 471.452063 76.011943 
L 477.877562 100.318677 
L 490.728562 148.581145 
L 493.941312 161.474759 
L 497.154063 173.82831 
L 506.792312 208.387505 
L 510.005063 208.387505 
L 513.217813 207.724037 
L 516.430562 207.285519 
L 522.856063 207.098854 
L 526.068812 207.219549 
L 529.281562 207.047823 
L 532.494312 207.041808 
L 535.707063 206.545819 
L 538.919812 206.454433 
L 548.558063 205.854472 
L 551.770813 206.319278 
L 554.983562 206.374645 
L 558.196312 205.865244 
L 561.409063 205.473769 
L 564.621812 205.955736 
L 564.621812 205.955736 
" clip-path="url(#p2e8d87a478)" style="fill: none; stroke-dasharray: 4.5,1.5,1.5,1.5; stroke-dashoffset: 0; stroke: #5b6470; stroke-width: 1.5"/>
    <defs>
     <path id="m1150c89837" d="M 0 2.404163 
L 2.404163 0 
L 0 -2.404163 
L -2.404163 0 
z
" style="stroke: #5b6470; stroke-width: 0.9; stroke-linejoin: miter"/>
    </defs>
    <g clip-path="url(#p2e8d87a478)">
     <use xlink:href="#m1150c89837" x="105.198563" y="170.724637" style="fill: #ffffff; stroke: #5b6470; stroke-width: 0.9; stroke-linejoin: miter"/>
     <use xlink:href="#m1150c89837" x="130.900563" y="104.51275" style="fill: #ffffff; stroke: #5b6470; stroke-width: 0.9; stroke-linejoin: miter"/>
     <use xlink:href="#m1150c89837" x="156.602563" y="81.761167" style="fill: #ffffff; stroke: #5b6470; stroke-width: 0.9; stroke-linejoin: miter"/>
     <use xlink:href="#m1150c89837" x="182.304563" y="81.310664" style="fill: #ffffff; stroke: #5b6470; stroke-width: 0.9; stroke-linejoin: miter"/>
     <use xlink:href="#m1150c89837" x="208.006563" y="80.850553" style="fill: #ffffff; stroke: #5b6470; stroke-width: 0.9; stroke-linejoin: miter"/>
     <use xlink:href="#m1150c89837" x="233.708562" y="81.099199" style="fill: #ffffff; stroke: #5b6470; stroke-width: 0.9; stroke-linejoin: miter"/>
     <use xlink:href="#m1150c89837" x="259.410562" y="65.745379" style="fill: #ffffff; stroke: #5b6470; stroke-width: 0.9; stroke-linejoin: miter"/>
     <use xlink:href="#m1150c89837" x="285.112562" y="161.855085" style="fill: #ffffff; stroke: #5b6470; stroke-width: 0.9; stroke-linejoin: miter"/>
     <use xlink:href="#m1150c89837" x="310.814562" y="186.839038" style="fill: #ffffff; stroke: #5b6470; stroke-width: 0.9; stroke-linejoin: miter"/>
     <use xlink:href="#m1150c89837" x="336.516562" y="129.461146" style="fill: #ffffff; stroke: #5b6470; stroke-width: 0.9; stroke-linejoin: miter"/>
     <use xlink:href="#m1150c89837" x="362.218562" y="65.615046" style="fill: #ffffff; stroke: #5b6470; stroke-width: 0.9; stroke-linejoin: miter"/>
     <use xlink:href="#m1150c89837" x="387.920562" y="87.075405" style="fill: #ffffff; stroke: #5b6470; stroke-width: 0.9; stroke-linejoin: miter"/>
     <use xlink:href="#m1150c89837" x="413.622562" y="65.615046" style="fill: #ffffff; stroke: #5b6470; stroke-width: 0.9; stroke-linejoin: miter"/>
     <use xlink:href="#m1150c89837" x="439.324562" y="65.656819" style="fill: #ffffff; stroke: #5b6470; stroke-width: 0.9; stroke-linejoin: miter"/>
     <use xlink:href="#m1150c89837" x="465.026562" y="70.550014" style="fill: #ffffff; stroke: #5b6470; stroke-width: 0.9; stroke-linejoin: miter"/>
     <use xlink:href="#m1150c89837" x="490.728562" y="148.581145" style="fill: #ffffff; stroke: #5b6470; stroke-width: 0.9; stroke-linejoin: miter"/>
     <use xlink:href="#m1150c89837" x="516.430562" y="207.285519" style="fill: #ffffff; stroke: #5b6470; stroke-width: 0.9; stroke-linejoin: miter"/>
     <use xlink:href="#m1150c89837" x="542.132562" y="206.231161" style="fill: #ffffff; stroke: #5b6470; stroke-width: 0.9; stroke-linejoin: miter"/>
    </g>
   </g>
   <g id="legend_1">
    <g id="line2d_30">
     <path d="M 10.6 31.148816 
L 21.65 31.148816 
L 32.7 31.148816 
" style="fill: none; stroke: #4c6e91; stroke-width: 1.5; stroke-linecap: square"/>
     <g>
      <use xlink:href="#mc6d0786a61" x="21.65" y="31.148816" style="fill: #ffffff; stroke: #4c6e91; stroke-width: 0.9"/>
     </g>
    </g>
    <g id="text_22">
     <text style="font-size: 8.5px; font-family: 'Microsoft YaHei', 'DejaVu Sans', sans-serif; text-anchor: start; fill: #333333" x="39.5" y="34.123816" transform="rotate(-0 39.5 34.123816)">2025-03-20　2029→1423 kWh</text>
    </g>
    <g id="line2d_31">
     <path d="M 176.533281 31.148816 
L 187.583281 31.148816 
L 198.633281 31.148816 
" style="fill: none; stroke-dasharray: 5.55,2.4; stroke-dashoffset: 0; stroke: #9aa4ae; stroke-width: 1.5"/>
     <g>
      <use xlink:href="#m27ed3453b1" x="187.583281" y="31.148816" style="fill: #ffffff; stroke: #9aa4ae; stroke-width: 0.9; stroke-linejoin: miter"/>
     </g>
    </g>
    <g id="text_23">
     <text style="font-size: 8.5px; font-family: 'Microsoft YaHei', 'DejaVu Sans', sans-serif; text-anchor: start; fill: #333333" x="205.433281" y="34.123816" transform="rotate(-0 205.433281 34.123816)">2025-06-21　4943→4854 kWh</text>
    </g>
    <g id="line2d_32">
     <path d="M 342.466562 31.148816 
L 353.516562 31.148816 
L 364.566562 31.148816 
" style="fill: none; stroke-dasharray: 9.6,2.4,1.5,2.4; stroke-dashoffset: 0; stroke: #7e9b84; stroke-width: 1.5"/>
     <g>
      <use xlink:href="#m2a30f865a0" x="353.516562" y="31.148816" style="fill: #ffffff; stroke: #7e9b84; stroke-width: 0.9; stroke-linejoin: miter"/>
     </g>
    </g>
    <g id="text_24">
     <text style="font-size: 8.5px; font-family: 'Microsoft YaHei', 'DejaVu Sans', sans-serif; text-anchor: start; fill: #333333" x="371.366562" y="34.123816" transform="rotate(-0 371.366562 34.123816)">2025-09-23　1205→1200 kWh</text>
    </g>
    <g id="line2d_33">
     <path d="M 508.399844 31.148816 
L 519.449844 31.148816 
L 530.499844 31.148816 
" style="fill: none; stroke-dasharray: 4.5,1.5,1.5,1.5; stroke-dashoffset: 0; stroke: #5b6470; stroke-width: 1.5"/>
     <g>
      <use xlink:href="#m1150c89837" x="519.449844" y="31.148816" style="fill: #ffffff; stroke: #5b6470; stroke-width: 0.9; stroke-linejoin: miter"/>
     </g>
    </g>
    <g id="text_25">
     <text style="font-size: 8.5px; font-family: 'Microsoft YaHei', 'DejaVu Sans', sans-serif; text-anchor: start; fill: #333333" x="537.299844" y="34.123816" transform="rotate(-0 537.299844 34.123816)">2025-12-21　3732→1364 kWh</text>
    </g>
   </g>
   <g id="text_26">
    <text style="font-size: 7.8px; font-family: 'Microsoft YaHei', 'DejaVu Sans', sans-serif; text-anchor: start; fill: #a9705a" x="108.090038" y="60.615046" transform="rotate(-0 108.090038 60.615046)">运行上限 10800 kWh</text>
   </g>
   <g id="text_27">
    <text style="font-size: 7.8px; font-family: 'Microsoft YaHei', 'DejaVu Sans', sans-serif; text-anchor: start; fill: #a9705a" x="108.090038" y="203.387505" transform="rotate(-0 108.090038 203.387505)">运行下限 1200 kWh</text>
   </g>
  </g>
 </g>
 <defs>
  <clipPath id="p2e8d87a478">
   <rect x="105.198563" y="44.794063" width="462.636" height="181.44"/>
  </clipPath>
 </defs>
</svg>
